<svg xmlns="http://www.w3.org/2000/svg" xmlns:xlink="http://www.w3.org/1999/xlink" width="500" zoomAndPan="magnify" viewBox="0 0 375 374.999991" height="500" preserveAspectRatio="xMidYMid meet" version="1.0"><defs><filter x="0%" y="0%" width="100%" height="100%" id="4bd65c5ae5"><feColorMatrix values="0 0 0 0 1 0 0 0 0 1 0 0 0 0 1 0 0 0 1 0" color-interpolation-filters="sRGB"/></filter><g/><mask id="c386748909"><g filter="url(#4bd65c5ae5)"><rect x="-37.5" width="450" fill="#000000" y="-37.499999" height="449.999989" fill-opacity="0.6196"/></g></mask><clipPath id="c1f8f6c4db"><path d="M 1.394531 0.078125 L 59.894531 0.078125 L 59.894531 64.160156 L 1.394531 64.160156 Z M 1.394531 0.078125 " clip-rule="nonzero"/></clipPath><clipPath id="50e0ef3413"><rect x="0" width="61" y="0" height="65"/></clipPath></defs><g mask="url(#c386748909)"><g transform="matrix(1, 0, 0, 1, 148, 208)"><g clip-path="url(#50e0ef3413)"><g clip-path="url(#c1f8f6c4db)"><path fill="#656564" d="M 10.664062 0.289062 C 10.46875 0.289062 10.285156 0.328125 10.109375 0.402344 C 9.929688 0.476562 9.773438 0.578125 9.636719 0.714844 C 9.503906 0.851562 9.398438 1.007812 9.324219 1.1875 C 9.25 1.363281 9.214844 1.550781 9.214844 1.742188 L 9.214844 22.050781 C 9.214844 22.246094 9.25 22.429688 9.324219 22.609375 C 9.398438 22.785156 9.503906 22.941406 9.636719 23.078125 C 9.773438 23.214844 9.929688 23.320312 10.109375 23.394531 C 10.285156 23.464844 10.46875 23.503906 10.664062 23.503906 L 16.453125 23.503906 L 16.453125 44.613281 L 10.753906 38.902344 C 8.925781 37.070312 5.914062 36.695312 3.828125 38.40625 C 1.5 40.316406 1.355469 43.847656 3.445312 45.9375 L 18.679688 61.160156 C 20.578125 63.058594 23.15625 64.125 25.839844 64.125 L 38.175781 64.125 C 43.757812 64.125 48.3125 59.5625 48.3125 53.96875 L 48.3125 40.394531 C 48.3125 37.800781 46.445312 35.402344 43.761719 35.136719 C 42.554688 35.015625 41.472656 35.414062 40.539062 36.027344 C 39.957031 34.109375 38.644531 32.449219 36.519531 32.234375 C 35.132812 32.09375 33.863281 32.574219 32.867188 33.382812 C 32.082031 32.039062 30.945312 30.949219 29.28125 30.78125 C 28.300781 30.683594 27.410156 30.953125 26.589844 31.359375 L 26.589844 23.503906 L 30.933594 23.503906 C 31.125 23.503906 31.3125 23.464844 31.488281 23.394531 C 31.667969 23.320312 31.824219 23.214844 31.957031 23.078125 C 32.09375 22.941406 32.199219 22.785156 32.273438 22.609375 C 32.347656 22.429688 32.382812 22.246094 32.382812 22.050781 L 32.382812 1.742188 C 32.382812 1.550781 32.347656 1.363281 32.273438 1.1875 C 32.199219 1.007812 32.09375 0.851562 31.957031 0.714844 C 31.824219 0.578125 31.667969 0.476562 31.488281 0.402344 C 31.3125 0.328125 31.125 0.289062 30.933594 0.289062 Z M 38.175781 0.289062 C 37.984375 0.289062 37.796875 0.328125 37.621094 0.402344 C 37.441406 0.476562 37.285156 0.578125 37.152344 0.714844 C 37.015625 0.851562 36.910156 1.007812 36.835938 1.1875 C 36.761719 1.363281 36.726562 1.550781 36.726562 1.742188 L 36.726562 22.050781 C 36.726562 22.246094 36.761719 22.429688 36.835938 22.609375 C 36.910156 22.785156 37.015625 22.941406 37.152344 23.078125 C 37.285156 23.214844 37.441406 23.320312 37.621094 23.394531 C 37.796875 23.464844 37.984375 23.503906 38.175781 23.503906 L 58.445312 23.503906 C 58.640625 23.503906 58.824219 23.464844 59 23.394531 C 59.179688 23.320312 59.335938 23.214844 59.472656 23.078125 C 59.605469 22.941406 59.710938 22.785156 59.785156 22.609375 C 59.859375 22.429688 59.894531 22.246094 59.894531 22.050781 L 59.894531 1.742188 C 59.894531 1.550781 59.859375 1.363281 59.785156 1.1875 C 59.710938 1.007812 59.605469 0.851562 59.472656 0.714844 C 59.335938 0.578125 59.179688 0.476562 59 0.402344 C 58.824219 0.328125 58.640625 0.289062 58.445312 0.289062 Z M 12.109375 3.191406 L 29.488281 3.191406 L 29.488281 20.601562 L 26.507812 20.601562 C 26.125 18.390625 24.398438 16.511719 22.039062 16.273438 C 21.550781 16.226562 21.082031 16.273438 20.625 16.355469 L 27.667969 8.515625 L 25.511719 6.574219 L 19.945312 12.773438 L 15.949219 9.34375 L 14.066406 11.546875 L 19.875 16.535156 C 18.121094 17.152344 16.8125 18.714844 16.535156 20.601562 L 12.109375 20.601562 Z M 39.621094 3.191406 L 57 3.191406 L 57 20.601562 L 39.621094 20.601562 Z M 21.261719 19.160156 C 21.417969 19.144531 21.582031 19.144531 21.75 19.160156 C 22.835938 19.269531 23.695312 20.332031 23.695312 21.535156 L 23.695312 21.808594 C 23.667969 21.964844 23.667969 22.125 23.695312 22.28125 L 23.695312 35.835938 C 23.695312 36.027344 23.734375 36.207031 23.8125 36.382812 C 23.886719 36.558594 23.992188 36.714844 24.125 36.847656 C 24.261719 36.980469 24.417969 37.085938 24.59375 37.15625 C 24.769531 37.230469 24.953125 37.265625 25.140625 37.265625 C 25.332031 37.265625 25.515625 37.230469 25.691406 37.15625 C 25.867188 37.085938 26.023438 36.980469 26.160156 36.847656 C 26.292969 36.714844 26.398438 36.558594 26.472656 36.382812 C 26.550781 36.207031 26.585938 36.027344 26.589844 35.835938 C 26.589844 34.539062 27.648438 33.535156 28.992188 33.671875 C 30.074219 33.777344 30.933594 34.839844 30.933594 36.042969 L 30.933594 37.285156 C 30.9375 37.476562 30.976562 37.660156 31.050781 37.835938 C 31.125 38.011719 31.230469 38.164062 31.367188 38.296875 C 31.5 38.433594 31.65625 38.535156 31.832031 38.609375 C 32.007812 38.679688 32.191406 38.714844 32.382812 38.714844 C 32.574219 38.714844 32.757812 38.679688 32.933594 38.609375 C 33.109375 38.535156 33.265625 38.433594 33.398438 38.296875 C 33.535156 38.164062 33.640625 38.011719 33.714844 37.835938 C 33.789062 37.660156 33.828125 37.476562 33.832031 37.285156 C 33.832031 35.992188 34.886719 34.984375 36.230469 35.121094 C 37.316406 35.230469 38.175781 36.289062 38.175781 37.492188 L 38.175781 40.1875 C 38.175781 40.378906 38.214844 40.5625 38.289062 40.734375 C 38.367188 40.910156 38.46875 41.066406 38.605469 41.199219 C 38.742188 41.332031 38.898438 41.4375 39.074219 41.507812 C 39.25 41.582031 39.433594 41.617188 39.621094 41.617188 C 39.8125 41.617188 39.996094 41.582031 40.171875 41.507812 C 40.347656 41.4375 40.503906 41.332031 40.640625 41.199219 C 40.773438 41.066406 40.878906 40.910156 40.953125 40.734375 C 41.03125 40.5625 41.066406 40.378906 41.070312 40.1875 C 41.070312 38.890625 42.128906 37.886719 43.472656 38.023438 C 44.554688 38.128906 45.414062 39.191406 45.414062 40.394531 L 45.414062 53.96875 C 45.414062 57.992188 42.191406 61.222656 38.175781 61.222656 L 25.839844 61.222656 C 23.921875 61.222656 22.085938 60.464844 20.726562 59.105469 L 5.488281 43.886719 C 4.578125 42.96875 4.621094 41.507812 5.664062 40.65625 C 6.503906 39.964844 7.859375 40.105469 8.707031 40.953125 L 16.878906 49.140625 C 17.085938 49.347656 17.332031 49.480469 17.621094 49.539062 C 17.90625 49.59375 18.1875 49.566406 18.457031 49.457031 C 18.726562 49.34375 18.945312 49.164062 19.105469 48.921875 C 19.269531 48.675781 19.351562 48.410156 19.351562 48.117188 L 19.351562 21.328125 C 19.351562 20.195312 20.160156 19.28125 21.261719 19.160156 Z M 21.261719 19.160156 " fill-opacity="1" fill-rule="nonzero"/></g></g></g></g><g fill="#000000" fill-opacity="1"><g transform="translate(83.57533, 190.575706)"><g><path d="M 20.03125 0.3125 C 16.75 0.3125 13.8125 -0.398438 11.21875 -1.828125 C 8.625 -3.265625 6.585938 -5.273438 5.109375 -7.859375 C 3.640625 -10.453125 2.90625 -13.375 2.90625 -16.625 C 2.90625 -19.863281 3.640625 -22.769531 5.109375 -25.34375 C 6.585938 -27.914062 8.625 -29.914062 11.21875 -31.34375 C 13.8125 -32.78125 16.75 -33.5 20.03125 -33.5 C 22.894531 -33.5 25.453125 -32.9375 27.703125 -31.8125 C 29.960938 -30.695312 31.75 -29.066406 33.0625 -26.921875 L 29.703125 -24.65625 C 28.609375 -26.289062 27.21875 -27.519531 25.53125 -28.34375 C 23.84375 -29.164062 22.007812 -29.578125 20.03125 -29.578125 C 17.632812 -29.578125 15.476562 -29.039062 13.5625 -27.96875 C 11.644531 -26.894531 10.144531 -25.367188 9.0625 -23.390625 C 7.988281 -21.410156 7.453125 -19.15625 7.453125 -16.625 C 7.453125 -14.050781 7.988281 -11.785156 9.0625 -9.828125 C 10.144531 -7.867188 11.644531 -6.351562 13.5625 -5.28125 C 15.476562 -4.207031 17.632812 -3.671875 20.03125 -3.671875 C 22.007812 -3.671875 23.84375 -4.066406 25.53125 -4.859375 C 27.21875 -5.660156 28.609375 -6.882812 29.703125 -8.53125 L 33.0625 -6.25 C 31.75 -4.101562 29.953125 -2.472656 27.671875 -1.359375 C 25.398438 -0.242188 22.851562 0.3125 20.03125 0.3125 Z M 20.03125 0.3125 "/></g></g></g><g fill="#000000" fill-opacity="1"><g transform="translate(119.152746, 190.575706)"><g><path d="M 23.203125 -33.5 C 27.367188 -33.5 30.679688 -32.285156 33.140625 -29.859375 C 35.609375 -27.441406 36.84375 -23.914062 36.84375 -19.28125 L 36.84375 0 L 32.359375 0 L 32.359375 -18.828125 C 32.359375 -22.285156 31.492188 -24.921875 29.765625 -26.734375 C 28.035156 -28.546875 25.570312 -29.453125 22.375 -29.453125 C 18.789062 -29.453125 15.957031 -28.382812 13.875 -26.25 C 11.789062 -24.125 10.75 -21.1875 10.75 -17.4375 L 10.75 0 L 6.25 0 L 6.25 -46.890625 L 10.75 -46.890625 L 10.75 -27.4375 C 11.96875 -29.375 13.648438 -30.867188 15.796875 -31.921875 C 17.953125 -32.972656 20.421875 -33.5 23.203125 -33.5 Z M 23.203125 -33.5 "/></g></g></g><g fill="#000000" fill-opacity="1"><g transform="translate(161.934103, 190.575706)"><g><path d="M 35.203125 -15.234375 L 7.390625 -15.234375 C 7.648438 -11.773438 8.976562 -8.984375 11.375 -6.859375 C 13.78125 -4.734375 16.816406 -3.671875 20.484375 -3.671875 C 22.546875 -3.671875 24.4375 -4.035156 26.15625 -4.765625 C 27.882812 -5.503906 29.382812 -6.59375 30.65625 -8.03125 L 33.1875 -5.125 C 31.707031 -3.351562 29.859375 -2.003906 27.640625 -1.078125 C 25.429688 -0.148438 23 0.3125 20.34375 0.3125 C 16.9375 0.3125 13.914062 -0.410156 11.28125 -1.859375 C 8.644531 -3.316406 6.585938 -5.328125 5.109375 -7.890625 C 3.640625 -10.460938 2.90625 -13.375 2.90625 -16.625 C 2.90625 -19.863281 3.609375 -22.769531 5.015625 -25.34375 C 6.429688 -27.914062 8.367188 -29.914062 10.828125 -31.34375 C 13.296875 -32.78125 16.070312 -33.5 19.15625 -33.5 C 22.226562 -33.5 24.984375 -32.78125 27.421875 -31.34375 C 29.867188 -29.914062 31.785156 -27.925781 33.171875 -25.375 C 34.566406 -22.820312 35.265625 -19.90625 35.265625 -16.625 Z M 19.15625 -29.640625 C 15.945312 -29.640625 13.257812 -28.617188 11.09375 -26.578125 C 8.925781 -24.535156 7.691406 -21.867188 7.390625 -18.578125 L 30.96875 -18.578125 C 30.675781 -21.867188 29.441406 -24.535156 27.265625 -26.578125 C 25.097656 -28.617188 22.394531 -29.640625 19.15625 -29.640625 Z M 19.15625 -29.640625 "/></g></g></g><g fill="#000000" fill-opacity="1"><g transform="translate(200.102397, 190.575706)"><g><path d="M 20.03125 0.3125 C 16.75 0.3125 13.8125 -0.398438 11.21875 -1.828125 C 8.625 -3.265625 6.585938 -5.273438 5.109375 -7.859375 C 3.640625 -10.453125 2.90625 -13.375 2.90625 -16.625 C 2.90625 -19.863281 3.640625 -22.769531 5.109375 -25.34375 C 6.585938 -27.914062 8.625 -29.914062 11.21875 -31.34375 C 13.8125 -32.78125 16.75 -33.5 20.03125 -33.5 C 22.894531 -33.5 25.453125 -32.9375 27.703125 -31.8125 C 29.960938 -30.695312 31.75 -29.066406 33.0625 -26.921875 L 29.703125 -24.65625 C 28.609375 -26.289062 27.21875 -27.519531 25.53125 -28.34375 C 23.84375 -29.164062 22.007812 -29.578125 20.03125 -29.578125 C 17.632812 -29.578125 15.476562 -29.039062 13.5625 -27.96875 C 11.644531 -26.894531 10.144531 -25.367188 9.0625 -23.390625 C 7.988281 -21.410156 7.453125 -19.15625 7.453125 -16.625 C 7.453125 -14.050781 7.988281 -11.785156 9.0625 -9.828125 C 10.144531 -7.867188 11.644531 -6.351562 13.5625 -5.28125 C 15.476562 -4.207031 17.632812 -3.671875 20.03125 -3.671875 C 22.007812 -3.671875 23.84375 -4.066406 25.53125 -4.859375 C 27.21875 -5.660156 28.609375 -6.882812 29.703125 -8.53125 L 33.0625 -6.25 C 31.75 -4.101562 29.953125 -2.472656 27.671875 -1.359375 C 25.398438 -0.242188 22.851562 0.3125 20.03125 0.3125 Z M 20.03125 0.3125 "/></g></g></g><g fill="#000000" fill-opacity="1"><g transform="translate(235.679813, 190.575706)"><g><path d="M 18.578125 -16.6875 L 10.75 -9.484375 L 10.75 0 L 6.25 0 L 6.25 -46.890625 L 10.75 -46.890625 L 10.75 -15.109375 L 30.59375 -33.25 L 36.15625 -33.25 L 21.9375 -19.65625 L 37.484375 0 L 31.984375 0 Z M 18.578125 -16.6875 "/></g></g></g><g fill="#000000" fill-opacity="1"><g transform="translate(224.665493, 222.107827)"><g><path d="M 12.078125 -8.484375 C 13.128906 -8.484375 13.957031 -8.175781 14.5625 -7.5625 C 15.164062 -6.957031 15.46875 -6.0625 15.46875 -4.875 L 15.46875 0 L 14.34375 0 L 14.34375 -4.765625 C 14.34375 -5.640625 14.128906 -6.304688 13.703125 -6.765625 C 13.285156 -7.222656 12.691406 -7.453125 11.921875 -7.453125 C 11.046875 -7.453125 10.359375 -7.179688 9.859375 -6.640625 C 9.359375 -6.109375 9.109375 -5.367188 9.109375 -4.421875 L 9.109375 0 L 7.96875 0 L 7.96875 -4.765625 C 7.96875 -5.640625 7.753906 -6.304688 7.328125 -6.765625 C 6.910156 -7.222656 6.3125 -7.453125 5.53125 -7.453125 C 4.664062 -7.453125 3.976562 -7.179688 3.46875 -6.640625 C 2.96875 -6.109375 2.71875 -5.367188 2.71875 -4.421875 L 2.71875 0 L 1.578125 0 L 1.578125 -8.421875 L 2.671875 -8.421875 L 2.671875 -6.875 C 2.972656 -7.382812 3.390625 -7.78125 3.921875 -8.0625 C 4.453125 -8.34375 5.066406 -8.484375 5.765625 -8.484375 C 6.460938 -8.484375 7.070312 -8.332031 7.59375 -8.03125 C 8.113281 -7.726562 8.5 -7.285156 8.75 -6.703125 C 9.0625 -7.253906 9.503906 -7.6875 10.078125 -8 C 10.660156 -8.320312 11.328125 -8.484375 12.078125 -8.484375 Z M 12.078125 -8.484375 "/></g></g></g><g fill="#000000" fill-opacity="1"><g transform="translate(241.637412, 222.107827)"><g><path d="M 4.53125 -8.484375 C 5.625 -8.484375 6.460938 -8.207031 7.046875 -7.65625 C 7.640625 -7.101562 7.9375 -6.289062 7.9375 -5.21875 L 7.9375 0 L 6.84375 0 L 6.84375 -1.3125 C 6.59375 -0.875 6.21875 -0.53125 5.71875 -0.28125 C 5.21875 -0.0390625 4.628906 0.078125 3.953125 0.078125 C 3.015625 0.078125 2.265625 -0.144531 1.703125 -0.59375 C 1.148438 -1.039062 0.875 -1.632812 0.875 -2.375 C 0.875 -3.082031 1.132812 -3.65625 1.65625 -4.09375 C 2.175781 -4.53125 3 -4.75 4.125 -4.75 L 6.796875 -4.75 L 6.796875 -5.265625 C 6.796875 -5.992188 6.59375 -6.546875 6.1875 -6.921875 C 5.78125 -7.296875 5.191406 -7.484375 4.421875 -7.484375 C 3.878906 -7.484375 3.363281 -7.394531 2.875 -7.21875 C 2.382812 -7.039062 1.960938 -6.800781 1.609375 -6.5 L 1.109375 -7.34375 C 1.535156 -7.707031 2.046875 -7.988281 2.640625 -8.1875 C 3.234375 -8.382812 3.863281 -8.484375 4.53125 -8.484375 Z M 4.125 -0.8125 C 4.769531 -0.8125 5.320312 -0.957031 5.78125 -1.25 C 6.238281 -1.550781 6.578125 -1.976562 6.796875 -2.53125 L 6.796875 -3.90625 L 4.15625 -3.90625 C 2.71875 -3.90625 2 -3.40625 2 -2.40625 C 2 -1.90625 2.1875 -1.515625 2.5625 -1.234375 C 2.9375 -0.953125 3.457031 -0.8125 4.125 -0.8125 Z M 4.125 -0.8125 "/></g></g></g><g fill="#000000" fill-opacity="1"><g transform="translate(251.075148, 222.107827)"><g><path d="M 6.015625 -0.515625 C 5.804688 -0.316406 5.539062 -0.164062 5.21875 -0.0625 C 4.90625 0.03125 4.578125 0.078125 4.234375 0.078125 C 3.453125 0.078125 2.847656 -0.132812 2.421875 -0.5625 C 1.992188 -0.988281 1.78125 -1.59375 1.78125 -2.375 L 1.78125 -7.453125 L 0.265625 -7.453125 L 0.265625 -8.421875 L 1.78125 -8.421875 L 1.78125 -10.25 L 2.90625 -10.25 L 2.90625 -8.421875 L 5.46875 -8.421875 L 5.46875 -7.453125 L 2.90625 -7.453125 L 2.90625 -2.4375 C 2.90625 -1.9375 3.03125 -1.550781 3.28125 -1.28125 C 3.53125 -1.019531 3.894531 -0.890625 4.375 -0.890625 C 4.601562 -0.890625 4.828125 -0.925781 5.046875 -1 C 5.265625 -1.082031 5.453125 -1.191406 5.609375 -1.328125 Z M 6.015625 -0.515625 "/></g></g></g><g fill="#000000" fill-opacity="1"><g transform="translate(257.56959, 222.107827)"><g><path d="M 8.90625 -3.859375 L 1.875 -3.859375 C 1.9375 -2.984375 2.269531 -2.273438 2.875 -1.734375 C 3.488281 -1.191406 4.257812 -0.921875 5.1875 -0.921875 C 5.707031 -0.921875 6.1875 -1.015625 6.625 -1.203125 C 7.0625 -1.390625 7.441406 -1.664062 7.765625 -2.03125 L 8.40625 -1.296875 C 8.03125 -0.847656 7.5625 -0.503906 7 -0.265625 C 6.4375 -0.0351562 5.820312 0.078125 5.15625 0.078125 C 4.289062 0.078125 3.523438 -0.101562 2.859375 -0.46875 C 2.191406 -0.84375 1.671875 -1.351562 1.296875 -2 C 0.921875 -2.644531 0.734375 -3.378906 0.734375 -4.203125 C 0.734375 -5.023438 0.910156 -5.757812 1.265625 -6.40625 C 1.628906 -7.0625 2.125 -7.570312 2.75 -7.9375 C 3.375 -8.300781 4.070312 -8.484375 4.84375 -8.484375 C 5.625 -8.484375 6.320312 -8.300781 6.9375 -7.9375 C 7.5625 -7.570312 8.046875 -7.066406 8.390625 -6.421875 C 8.742188 -5.773438 8.921875 -5.035156 8.921875 -4.203125 Z M 4.84375 -7.5 C 4.03125 -7.5 3.347656 -7.238281 2.796875 -6.71875 C 2.253906 -6.207031 1.945312 -5.535156 1.875 -4.703125 L 7.84375 -4.703125 C 7.769531 -5.535156 7.457031 -6.207031 6.90625 -6.71875 C 6.351562 -7.238281 5.664062 -7.5 4.84375 -7.5 Z M 4.84375 -7.5 "/></g></g></g></svg>